<svg id="Capa_1" enable-background="new 0 0 512 512" height="512" viewBox="0 0 512 512" width="512" xmlns="http://www.w3.org/2000/svg" xmlns:xlink="http://www.w3.org/1999/xlink"><radialGradient id="SVGID_1_" cx="72.638" cy="63.551" gradientTransform="matrix(.707 -.707 .553 .553 -13.887 79.752)" gradientUnits="userSpaceOnUse" r="226.024"><stop offset="0" stop-color="#f4fbff"/><stop offset=".6064" stop-color="#b9e4ef"/><stop offset=".7286" stop-color="#b5e3ee"/><stop offset=".8556" stop-color="#a8dfea"/><stop offset=".9843" stop-color="#94d8e4"/><stop offset=".9878" stop-color="#93d8e4"/></radialGradient><radialGradient id="SVGID_2_" cx="-18.307" cy="255.964" gradientTransform="matrix(1 0 0 .66 0 86.958)" gradientUnits="userSpaceOnUse" r="405.566"><stop offset="0" stop-color="#93d8e4"/><stop offset=".1762" stop-color="#8dd4e2"/><stop offset=".4118" stop-color="#7cc8db"/><stop offset=".5854" stop-color="#6bbcd5"/><stop offset="1" stop-color="#5ea5ec"/></radialGradient><radialGradient id="SVGID_3_" cx="334.494" cy="267.854" gradientUnits="userSpaceOnUse" r="373.342"><stop offset="0" stop-color="#b9e4ef"/><stop offset=".2635" stop-color="#8ed6e4"/><stop offset=".377" stop-color="#7ad0df"/><stop offset=".5853" stop-color="#73c6d9"/><stop offset=".8996" stop-color="#63afcb"/></radialGradient><radialGradient id="SVGID_4_" cx="354.805" cy="3430.082" gradientTransform="matrix(.931 0 0 .112 -75.044 78.103)" gradientUnits="userSpaceOnUse" r="234.348"><stop offset="0" stop-color="#90d8f9"/><stop offset=".0092" stop-color="#92d9f9"/><stop offset=".3382" stop-color="#cbecf9"/><stop offset=".4962" stop-color="#e2f4f9"/><stop offset=".888" stop-color="#fff"/></radialGradient><radialGradient id="SVGID_5_" cx="654.612" cy="-247.789" gradientTransform="matrix(.862 .231 -.308 1.149 -396.312 340.557)" gradientUnits="userSpaceOnUse" r="102.142"><stop offset="0" stop-color="#b9e4ef"/><stop offset=".2293" stop-color="#8ed2e3"/><stop offset=".377" stop-color="#70c6da"/><stop offset=".6504" stop-color="#6abcd4"/><stop offset=".8996" stop-color="#63afcb"/></radialGradient><linearGradient id="lg1"><stop offset=".0011" stop-color="#fff"/><stop offset=".5432" stop-color="#dfdde2"/><stop offset=".7531" stop-color="#e4e3e7"/><stop offset="1" stop-color="#f1f1f4"/></linearGradient><radialGradient id="SVGID_6_" cx="538.061" cy="-292.71" gradientTransform="matrix(.862 .231 -.223 .831 -371.35 247.398)" gradientUnits="userSpaceOnUse" r="173.625" xlink:href="#lg1"/><radialGradient id="SVGID_7_" cx="-1714.404" cy="255.858" gradientTransform="matrix(-.862 .231 .308 1.149 -1145.668 340.557)" gradientUnits="userSpaceOnUse" r="102.142"><stop offset="0" stop-color="#93d8e4"/><stop offset=".377" stop-color="#7ad0df"/><stop offset=".5853" stop-color="#73c6d9"/><stop offset=".8996" stop-color="#63afcb"/></radialGradient><radialGradient id="SVGID_8_" cx="-1641.967" cy="168.314" gradientTransform="matrix(.889 .438 .156 -.786 1755.372 1005.568)" gradientUnits="userSpaceOnUse" r="173.625" xlink:href="#lg1"/><radialGradient id="SVGID_9_" cx="317.531" cy="-1868.023" gradientTransform="matrix(1 0 0 -.968 0 -1403.469)" gradientUnits="userSpaceOnUse" r="186.969"><stop offset="0" stop-color="#98b9d3"/><stop offset=".1498" stop-color="#89aecb"/><stop offset=".4372" stop-color="#6291b6"/><stop offset=".5905" stop-color="#4a80aa"/><stop offset=".7253" stop-color="#3f6e92"/><stop offset="1" stop-color="#2b4d66"/></radialGradient><g><path d="m293.01 23.082h-74.02c-120.945 0-218.99 98.045-218.99 218.99l89.659 24.005z" fill="url(#SVGID_1_)"/><path d="m74.02 242.072h-74.02c0 120.945 98.045 218.99 218.99 218.99h74.02z" fill="url(#SVGID_2_)"/><circle cx="293.01" cy="242.072" fill="url(#SVGID_3_)" r="218.99"/><path d="m258.279 488.918c125.572 0 227.368-12.472 227.368-27.856h-454.736c0 15.385 101.796 27.856 227.368 27.856z" fill="url(#SVGID_4_)"/><path d="m257.286 216.934c-10.19 38.029-41.566 62.664-70.081 55.024-28.515-7.641-43.37-44.663-33.18-82.693s41.566-62.664 70.081-55.024 43.37 44.664 33.18 82.693z" fill="url(#SVGID_5_)"/><path d="m257.286 205.914c-10.19 38.029-41.566 62.664-70.081 55.024-28.515-7.641-43.37-44.663-33.18-82.693s41.566-62.664 70.081-55.024 43.37 44.663 33.18 82.693z" fill="url(#SVGID_6_)"/><path d="m328.734 216.934c10.19 38.029 41.566 62.664 70.081 55.024 28.515-7.641 43.37-44.663 33.18-82.693s-41.566-62.664-70.081-55.024c-28.515 7.641-43.37 44.664-33.18 82.693z" fill="url(#SVGID_7_)"/><path d="m328.734 205.914c10.19 38.029 41.566 62.664 70.081 55.024 28.515-7.641 43.37-44.663 33.18-82.693s-41.566-62.664-70.081-55.024c-28.515 7.641-43.37 44.663-33.18 82.693z" fill="url(#SVGID_8_)"/><path d="m293.114 363.859c-39.572 0-74.981 9.186-98.636 17.35-14.949 5.159-29.598-8.623-25.166-23.804 15.648-53.594 65.153-92.746 123.802-92.746s108.153 39.152 123.801 92.746c4.433 15.181-10.216 28.963-25.166 23.804-23.654-8.164-59.063-17.35-98.635-17.35z" fill="url(#SVGID_9_)"/></g></svg>