<svg id="Capa_1" enable-background="new 0 0 512 512" height="512" viewBox="0 0 512 512" width="512" xmlns="http://www.w3.org/2000/svg" xmlns:xlink="http://www.w3.org/1999/xlink"><radialGradient id="SVGID_1_" cx="72.638" cy="63.551" gradientTransform="matrix(.707 -.707 .553 .553 -13.887 79.752)" gradientUnits="userSpaceOnUse" r="226.024"><stop offset=".0132" stop-color="#f9e4dd"/><stop offset=".6064" stop-color="#ffc3ac"/><stop offset=".738" stop-color="#fcc0a8"/><stop offset=".8744" stop-color="#f5b79b"/><stop offset="1" stop-color="#eaaa89"/></radialGradient><radialGradient id="SVGID_2_" cx="-18.307" cy="255.964" gradientTransform="matrix(1 0 0 .66 0 86.958)" gradientUnits="userSpaceOnUse" r="405.566"><stop offset="0" stop-color="#e4936b"/><stop offset=".1321" stop-color="#e38d65"/><stop offset=".3093" stop-color="#e17c55"/><stop offset=".511" stop-color="#de603a"/><stop offset=".5854" stop-color="#dd542e"/><stop offset="1" stop-color="#dd542e"/></radialGradient><radialGradient id="SVGID_3_" cx="334.494" cy="267.854" gradientUnits="userSpaceOnUse" r="373.342"><stop offset="0" stop-color="#e4936b"/><stop offset=".377" stop-color="#e27d47"/><stop offset=".5166" stop-color="#df7342"/><stop offset=".7516" stop-color="#d55934"/><stop offset=".8996" stop-color="#ce4529"/></radialGradient><linearGradient id="lg1"><stop offset="0" stop-color="#aa8080"/><stop offset=".4963" stop-color="#9d6b6b"/><stop offset=".7486" stop-color="#845959"/><stop offset="1" stop-color="#664545"/></linearGradient><radialGradient id="SVGID_4_" cx="-2910.141" cy="-2422.94" gradientTransform="matrix(-.5 -.866 1.593 -.92 2782.374 -4569.171)" gradientUnits="userSpaceOnUse" r="35.057" xlink:href="#lg1"/><radialGradient id="SVGID_5_" cx="276.485" cy="3430.082" gradientTransform="matrix(.931 0 0 .112 -2.094 78.103)" gradientUnits="userSpaceOnUse" r="234.348"><stop offset="0" stop-color="#e4936b"/><stop offset=".0841" stop-color="#e9a07e"/><stop offset=".3624" stop-color="#f9cab7"/><stop offset=".4962" stop-color="#ffdace"/><stop offset=".888" stop-color="#fff"/></radialGradient><radialGradient id="SVGID_6_" cx="255.656" cy="-3998.267" gradientTransform="matrix(-1 0 0 -.438 586.02 -1401.38)" gradientUnits="userSpaceOnUse" r="160.52"><stop offset="0" stop-color="#c3a2a2"/><stop offset=".2405" stop-color="#ae8989"/><stop offset=".5905" stop-color="#8b5e5e"/><stop offset=".6755" stop-color="#7f5656"/><stop offset="1" stop-color="#523838"/></radialGradient><radialGradient id="SVGID_7_" cx="381.441" cy="241.817" gradientTransform="matrix(1 0 0 1.53 0 -128.047)" gradientUnits="userSpaceOnUse" r="43.931"><stop offset="0" stop-color="#c6865c"/><stop offset=".5808" stop-color="#c17d4f"/><stop offset=".7775" stop-color="#aa6d41"/><stop offset="1" stop-color="#8b572e"/></radialGradient><linearGradient id="lg2"><stop offset="0" stop-color="#aa8080"/><stop offset=".5808" stop-color="#9d6b6b"/><stop offset=".7744" stop-color="#865b5b"/><stop offset="1" stop-color="#664545"/></linearGradient><radialGradient id="SVGID_8_" cx="521.44" cy="241.817" gradientTransform="matrix(1 0 0 1.53 -139.999 -128.047)" gradientUnits="userSpaceOnUse" r="43.931" xlink:href="#lg2"/><radialGradient id="SVGID_9_" cx="-1839.413" cy="1661.437" gradientTransform="matrix(.5 -.866 -1.593 -.92 3806.608 136.442)" gradientUnits="userSpaceOnUse" r="35.057" xlink:href="#lg1"/><radialGradient id="SVGID_10_" cx="381.441" cy="241.817" gradientTransform="matrix(1 0 0 1.53 -139.999 -128.047)" gradientUnits="userSpaceOnUse" r="43.931" xlink:href="#lg2"/><g><path d="m293.01 23.082h-74.02c-120.945 0-218.99 98.045-218.99 218.99l89.659 24.005z" fill="url(#SVGID_1_)"/><path d="m74.02 242.072h-74.02c0 120.945 98.045 218.99 218.99 218.99h74.02z" fill="url(#SVGID_2_)"/><circle cx="293.01" cy="242.072" fill="url(#SVGID_3_)" r="218.99"/><path d="m331.028 195.226c-.819.22-1.705.233-2.584-.002-2.668-.715-4.25-3.456-3.535-6.124 3.265-12.188 11.082-22.374 22.009-28.683 10.928-6.308 23.657-7.985 35.844-4.719 2.668.715 4.25 3.456 3.535 6.124s-3.456 4.25-6.124 3.535c-9.607-2.574-19.642-1.254-28.256 3.72-8.614 4.973-14.776 13.003-17.35 22.611-.478 1.79-1.869 3.091-3.539 3.538z" fill="url(#SVGID_4_)"/><path d="m258.279 488.918c125.572 0 227.368-12.472 227.368-27.856h-454.736c0 15.385 101.796 27.856 227.368 27.856z" fill="url(#SVGID_5_)"/><path d="m293.01 312.694c42.257 0 81.479 14.841 113.912 40.204 3.252 2.543 7.475-1.683 4.946-4.947-29.085-37.536-71.554-61.196-118.858-61.196s-89.773 23.661-118.858 61.196c-2.529 3.263 1.694 7.49 4.946 4.947 32.433-25.363 71.654-40.204 113.912-40.204z" fill="url(#SVGID_6_)"/><path d="m363.009 254.02c-12.576 0-22.771-10.195-22.771-22.771v-24.696c0-12.576 10.195-22.771 22.771-22.771 12.576 0 22.771 10.195 22.771 22.771v24.696c0 12.576-10.195 22.771-22.771 22.771z" fill="url(#SVGID_7_)"/><path d="m363.009 254.02c-12.576 0-22.771-10.195-22.771-22.771v-24.696c0-12.576 10.195-22.771 22.771-22.771 12.576 0 22.771 10.195 22.771 22.771v24.696c0 12.576-10.195 22.771-22.771 22.771z" fill="url(#SVGID_8_)"/><path d="m254.991 195.226c.819.22 1.705.233 2.584-.002 2.668-.715 4.25-3.456 3.535-6.124-3.265-12.188-11.082-22.374-22.009-28.683-10.928-6.308-23.657-7.985-35.844-4.719-2.668.715-4.25 3.456-3.535 6.124s3.456 4.25 6.124 3.535c9.607-2.574 19.642-1.254 28.256 3.72 8.614 4.973 14.776 13.003 17.35 22.611.479 1.79 1.87 3.091 3.539 3.538z" fill="url(#SVGID_9_)"/><path d="m223.01 254.02c-12.576 0-22.771-10.195-22.771-22.771v-24.696c0-12.576 10.195-22.771 22.771-22.771 12.576 0 22.771 10.195 22.771 22.771v24.696c0 12.576-10.195 22.771-22.771 22.771z" fill="url(#SVGID_10_)"/></g></svg>