<svg id="Capa_1" enable-background="new 0 0 511.998 511.998" height="512" viewBox="0 0 511.998 511.998" width="512" xmlns="http://www.w3.org/2000/svg" xmlns:xlink="http://www.w3.org/1999/xlink"><radialGradient id="SVGID_1_" cx="37.038" cy="55.601" gradientTransform="matrix(.702 -.712 .557 .549 14.324 60.899)" gradientUnits="userSpaceOnUse" r="226.024"><stop offset=".0132" stop-color="#eaf6df"/><stop offset=".6064" stop-color="#e2f4b4"/><stop offset=".782" stop-color="#e0f3b0"/><stop offset=".9641" stop-color="#daf2a3"/><stop offset="1" stop-color="#d8f1a0"/></radialGradient><radialGradient id="SVGID_2_" cx="-53.907" cy="248.013" gradientTransform="matrix(1 -.008 .005 .66 34.487 93.979)" gradientUnits="userSpaceOnUse" r="405.566"><stop offset="0" stop-color="#c8ea73"/><stop offset=".1457" stop-color="#c3e66d"/><stop offset=".341" stop-color="#b6db5c"/><stop offset=".5635" stop-color="#a0c840"/><stop offset=".5854" stop-color="#9dc63d"/><stop offset="1" stop-color="#8bc852"/></radialGradient><radialGradient id="SVGID_3_" cx="298.894" cy="259.903" gradientTransform="matrix(1 -.008 .008 1 33.858 9.725)" gradientUnits="userSpaceOnUse" r="373.342"><stop offset="0" stop-color="#c8ea73"/><stop offset=".3541" stop-color="#b8e448"/><stop offset=".377" stop-color="#b7e445"/><stop offset=".5417" stop-color="#afda42"/><stop offset=".819" stop-color="#98c03b"/><stop offset=".8996" stop-color="#90b738"/></radialGradient><radialGradient id="SVGID_4_" cx="277.425" cy="3417.213" gradientTransform="matrix(.931 -.007 .001 .112 -4.175 81.601)" gradientUnits="userSpaceOnUse" r="234.348"><stop offset="0" stop-color="#c8ea73"/><stop offset=".0144" stop-color="#c9ea76"/><stop offset=".3399" stop-color="#e1f3af"/><stop offset=".4962" stop-color="#eaf6c6"/><stop offset=".888" stop-color="#fff"/></radialGradient><linearGradient id="lg1"><stop offset="0" stop-color="#93c8a5"/><stop offset=".2067" stop-color="#84be96"/><stop offset=".5905" stop-color="#5ea570"/><stop offset=".6908" stop-color="#559665"/><stop offset="1" stop-color="#3b6945"/></linearGradient><radialGradient id="SVGID_5_" cx="255.385" cy="270.009" gradientTransform="matrix(1 0 0 1.381 0 -102.776)" gradientUnits="userSpaceOnUse" r="77.784" xlink:href="#lg1"/><radialGradient id="SVGID_6_" cx="395.383" cy="270.009" gradientTransform="matrix(1 0 0 1.381 0 -102.776)" gradientUnits="userSpaceOnUse" r="77.784" xlink:href="#lg1"/><radialGradient id="SVGID_7_" cx="1105.439" cy="-3630.995" gradientTransform="matrix(.866 .5 .377 -.654 793.289 -2708.648)" gradientUnits="userSpaceOnUse" r="64.03" xlink:href="#lg1"/><radialGradient id="SVGID_8_" cx="1830.508" cy="-2290.512" gradientTransform="matrix(-.866 .5 -.377 -.654 942.359 -2203.626)" gradientUnits="userSpaceOnUse" r="64.03" xlink:href="#lg1"/><radialGradient id="SVGID_9_" cx="275.732" cy="344.176" gradientTransform="matrix(1 0 0 .383 0 212.381)" gradientUnits="userSpaceOnUse" r="157.465"><stop offset="0" stop-color="#aad3b9"/><stop offset=".2177" stop-color="#91c4a1"/><stop offset=".5905" stop-color="#5ea570"/><stop offset=".6908" stop-color="#559665"/><stop offset="1" stop-color="#3b6945"/></radialGradient><g><path d="m291.374 22.935-74.018.552c-120.942.903-218.252 99.677-217.35 220.618l89.836 23.335z" fill="url(#SVGID_1_)"/><path d="m74.024 243.553-74.018.552c.903 120.941 99.677 218.252 220.618 217.35l74.018-.552z" fill="url(#SVGID_2_)"/><circle cx="293.008" cy="241.919" fill="url(#SVGID_3_)" r="218.99"/><path d="m260.121 489.017c125.569-.937 227.269-14.168 227.154-29.552l-454.725 3.394c.115 15.384 102.002 27.095 227.571 26.158z" fill="url(#SVGID_4_)"/><path d="m222.405 266.135c-12.576 0-22.771-10.195-22.771-22.771v-25.212c0-12.576 10.195-22.771 22.771-22.771 12.576 0 22.771 10.195 22.771 22.771v25.212c0 12.577-10.195 22.771-22.771 22.771z" fill="url(#SVGID_5_)"/><path d="m362.403 266.135c-12.576 0-22.771-10.195-22.771-22.771v-25.212c0-12.576 10.195-22.771 22.771-22.771 12.576 0 22.771 10.195 22.771 22.771v25.212c0 12.577-10.195 22.771-22.771 22.771z" fill="url(#SVGID_6_)"/><path d="m413.52 177.957c-1.108-.64-2.461-.857-3.794-.499-23.116 6.194-48.038-1.626-63.482-19.916-1.781-2.108-4.937-2.376-7.047-.594-2.109 1.782-2.375 4.936-.594 7.046 17.939 21.237 46.871 30.315 73.709 23.122 2.668-.714 4.251-3.456 3.536-6.124-.356-1.332-1.22-2.395-2.328-3.035z" fill="url(#SVGID_7_)"/><path d="m172.496 179.148c1.108-.64 2.461-.857 3.794-.499 23.116 6.194 48.038-1.626 63.482-19.916 1.781-2.108 4.937-2.376 7.047-.594 2.109 1.782 2.375 4.936.594 7.046-17.939 21.237-46.871 30.315-73.709 23.122-2.668-.714-4.251-3.456-3.536-6.124.356-1.332 1.22-2.395 2.328-3.035z" fill="url(#SVGID_8_)"/><path d="m402.092 291.246c-1.782-2.109-4.936-2.375-7.046-.594-7.982 6.742-14.246 15.038-18.574 24.191-24.25-17.178-52.841-27.104-83.463-27.104s-59.214 9.925-83.464 27.102c-4.328-9.152-10.592-17.447-18.573-24.189-2.11-1.781-5.264-1.515-7.046.594-1.783 2.109-1.515 5.265.594 7.047 18.29 15.444 26.11 40.366 19.916 63.481-.358 1.333-.14 2.686.499 3.794s1.703 1.972 3.036 2.329c2.668.715 5.409-.868 6.124-3.536 2.921-10.899 3.159-22.143.988-32.856 23.98-11.479 50.303-17.828 77.927-17.828s53.947 6.348 77.927 17.827c-2.17 10.713-1.933 21.958.988 32.857.714 2.668 3.456 4.251 6.124 3.536 1.333-.357 2.396-1.221 3.036-2.329s.857-2.461.499-3.794c-6.194-23.116 1.626-48.038 19.916-63.481 2.106-1.782 2.374-4.938.592-7.047z" fill="url(#SVGID_9_)"/></g></svg>