<svg id="Capa_1" enable-background="new 0 0 512 512" height="512" viewBox="0 0 512 512" width="512" xmlns="http://www.w3.org/2000/svg" xmlns:xlink="http://www.w3.org/1999/xlink"><radialGradient id="SVGID_1_" cx="72.638" cy="63.551" gradientTransform="matrix(.707 -.707 .553 .553 -13.887 79.752)" gradientUnits="userSpaceOnUse" r="226.024"><stop offset=".0132" stop-color="#fffbe4"/><stop offset=".6064" stop-color="#f9efaf"/><stop offset=".7207" stop-color="#f9eeab"/><stop offset=".8394" stop-color="#f8ec9e"/><stop offset=".9597" stop-color="#f7e98a"/><stop offset="1" stop-color="#f6e781"/></radialGradient><radialGradient id="SVGID_2_" cx="-18.307" cy="255.964" gradientTransform="matrix(1 0 0 .66 0 86.958)" gradientUnits="userSpaceOnUse" r="405.566"><stop offset="0" stop-color="#f6e266"/><stop offset=".1349" stop-color="#f5dc60"/><stop offset=".3156" stop-color="#f0cb51"/><stop offset=".5216" stop-color="#e9af37"/><stop offset=".5854" stop-color="#e7a52e"/><stop offset="1" stop-color="#e7a52e"/></radialGradient><linearGradient id="lg1"><stop offset="0" stop-color="#f6e266"/><stop offset=".377" stop-color="#f4dd45"/><stop offset=".4963" stop-color="#f2d340"/><stop offset=".6976" stop-color="#ecb934"/><stop offset=".8996" stop-color="#e49824"/></linearGradient><radialGradient id="SVGID_3_" cx="334.494" cy="267.854" gradientUnits="userSpaceOnUse" r="373.342" xlink:href="#lg1"/><radialGradient id="SVGID_4_" cx="276.485" cy="3100.909" gradientTransform="matrix(.931 0 0 .112 -2.094 114.878)" gradientUnits="userSpaceOnUse" r="234.348"><stop offset="0" stop-color="#ecb780"/><stop offset=".3347" stop-color="#faddb9"/><stop offset=".4962" stop-color="#ffecd0"/><stop offset=".888" stop-color="#fff"/></radialGradient><radialGradient id="SVGID_5_" cx="233.662" cy="259.127" gradientUnits="userSpaceOnUse" r="112.163" xlink:href="#lg1"/><radialGradient id="SVGID_6_" cx="393.66" cy="259.127" gradientUnits="userSpaceOnUse" r="112.163" xlink:href="#lg1"/><linearGradient id="lg2"><stop offset=".0011" stop-color="#fff"/><stop offset=".5432" stop-color="#dfdde2"/><stop offset=".7531" stop-color="#e4e3e7"/><stop offset="1" stop-color="#f1f1f4"/></linearGradient><radialGradient id="SVGID_7_" cx="135.479" cy="183.257" gradientTransform="matrix(1 0 0 .723 0 50.747)" gradientUnits="userSpaceOnUse" r="190.659" xlink:href="#lg2"/><linearGradient id="lg3"><stop offset=".0011" stop-color="#afaab4"/><stop offset=".5432" stop-color="#665e66"/><stop offset=".6341" stop-color="#6b646c"/><stop offset=".7515" stop-color="#7a737c"/><stop offset=".8829" stop-color="#938d96"/><stop offset="1" stop-color="#afaab4"/></linearGradient><radialGradient id="SVGID_8_" cx="179.421" cy="185.036" gradientTransform="matrix(1 0 0 .723 0 51.24)" gradientUnits="userSpaceOnUse" r="82.602" xlink:href="#lg3"/><radialGradient id="SVGID_9_" cx="295.478" cy="183.257" gradientTransform="matrix(1 0 0 .723 0 50.747)" gradientUnits="userSpaceOnUse" r="190.659" xlink:href="#lg2"/><radialGradient id="SVGID_10_" cx="339.419" cy="185.036" gradientTransform="matrix(1 0 0 .723 0 51.24)" gradientUnits="userSpaceOnUse" r="82.602" xlink:href="#lg3"/><radialGradient id="SVGID_11_" cx="325.069" cy="380.651" gradientTransform="matrix(.907 0 0 .383 27.126 234.889)" gradientUnits="userSpaceOnUse" r="119.337"><stop offset="0" stop-color="#d8aa8b"/><stop offset=".2127" stop-color="#cc9772"/><stop offset=".5905" stop-color="#b16e3d"/><stop offset=".6258" stop-color="#ad6b3b"/><stop offset="1" stop-color="#804f2b"/></radialGradient><g><path d="m293.01 23.082h-74.02c-120.945 0-218.99 98.045-218.99 218.99l89.659 24.005z" fill="url(#SVGID_1_)"/><path d="m74.02 242.072h-74.02c0 120.945 98.045 218.99 218.99 218.99h74.02z" fill="url(#SVGID_2_)"/><circle cx="293.01" cy="242.072" fill="url(#SVGID_3_)" r="218.99"/><path d="m258.279 488.918c125.572 0 227.368-12.472 227.368-27.856h-454.736c0 15.385 101.796 27.856 227.368 27.856z" fill="url(#SVGID_4_)"/><circle cx="213.011" cy="238.535" fill="url(#SVGID_5_)" r="65.791"/><circle cx="373.009" cy="238.535" fill="url(#SVGID_6_)" r="65.791"/><circle cx="213.011" cy="228.535" fill="url(#SVGID_7_)" r="65.791"/><circle cx="213.011" cy="204.652" fill="url(#SVGID_8_)" r="28.503"/><circle cx="373.009" cy="228.535" fill="url(#SVGID_9_)" r="65.791"/><circle cx="373.009" cy="204.652" fill="url(#SVGID_10_)" r="28.503"/><path d="m366.18 361.4h-146.34c-3.772 0-6.83-3.058-6.83-6.83v-.68c0-3.772 3.058-6.83 6.83-6.83h146.34c3.772 0 6.83 3.058 6.83 6.83v.68c-.001 3.772-3.058 6.83-6.83 6.83z" fill="url(#SVGID_11_)"/></g></svg>